<?xml version="1.0" encoding="UTF-8"?>
<svg width="400" height="300" version="1.1" viewBox="0 0 400 300" xmlns="http://www.w3.org/2000/svg">
 <defs>
  <linearGradient id="a" x1="0" x2="1" y1="0" y2="1">
   <stop stop-color="#e63946" offset="0"/>
   <stop stop-color="#1d3557" offset="1"/>
  </linearGradient>
 </defs>
 <rect width="400" height="300" fill="url(#a)" rx="15"/>
 <g fill="#f1faee" transform="translate(100,60)">
  <path d="m100 50c-27.614 0-50 22.386-50 50s22.386 50 50 50 50-22.386 50-50-22.386-50-50-50zm0 20c16.569 0 30 13.431 30 30s-13.431 30-30 30-30-13.431-30-30 13.431-30 30-30z"/>
  <path d="m100 90c-5.5228 0-10 4.4772-10 10s4.4772 10 10 10 10-4.4772 10-10-4.4772-10-10-10z"/>
  <path d="m85 130 30-60" stroke="#f1faee" stroke-width="8"/>
 </g>
</svg>